:SAMPLES-PER-SECOND 30
:FULLY-SPECIFIED
:DEGREES
262
root  -2.53947 41.0067 0.584621 171.958 -84.9719 -169.261
RightUpLeg  1.30594 -0.492758 -1.16386
RightLeg  -4.82433 -15.2118 1.53195
RightFoot  2.51854 -0.358143 3.08665
RightToes  -3.11842e-008 1.75238e-005 3.56266e-009
Spine  -2.12035 -5.22249 -11.6363
Spine1  1.75376 -6.41485 8.73087
HEad  -8.40657 -15.5354 11.1861
LeftShoulder1  3.10733 -8.3645 -19.7072
LeftArm  -33.2587 -54.3213 -45.1273
LeftForeArm  50.6053 -78.4732 -81.3414
LeftHand  0.115064 -3.02079 -1.37912
RightShoulder  1.87086 4.6047 16.4216
RightArm  -61.5638 35.7205 18.0728
RightForeArm  69.7555 74.3975 128.658
RightHand  0.0568449 6.55214 0.245944
LeftUpLeg  0.858918 1.31621 2.7654
LeftLeg  -3.8192 19.3704 -1.6391
LeftFoot  1.64146 0.153774 -1.40791
LeftToes  4.7713e-008 1.46693e-008 1.32589e-009
263
root  -2.56287 41.0087 0.64268 172.808 -84.5026 -169.699
RightUpLeg  0.888808 -0.482055 -1.25086
RightLeg  -4.95863 -14.7497 1.58898
RightFoot  2.68442 -0.363828 3.10585
RightToes  -3.11842e-008 1.75238e-005 3.56266e-009
Spine  -1.43261 -5.54167 -12.4333
Spine1  0.0356817 -6.87179 10.2179
HEad  -10.2375 -15.8223 12.5667
LeftShoulder1  2.74937 -7.66173 -18.0372
LeftArm  -35.4809 -57.0147 -45.2435
LeftForeArm  43.4496 -78.1376 -73.4513
LeftHand  0.0458777 -3.28861 -0.385773
RightShoulder  1.62004 3.81303 15.4067
RightArm  -63.5512 37.9862 17.4667
RightForeArm  61.8926 76.0629 119.097
RightHand  -0.118395 7.86597 -1.4243
LeftUpLeg  0.648655 1.28482 2.72729
LeftLeg  -4.14196 19.8583 -1.82306
LeftFoot  1.73718 0.145831 -1.36508
LeftToes  4.7713e-008 1.46693e-008 1.32589e-009
264
root  -2.53188 41.0093 0.72106 174.162 -83.7516 -170.631
RightUpLeg  0.291684 -0.429406 -1.348
RightLeg  -5.01379 -14.0548 1.54787
RightFoot  2.95626 -0.365969 3.07664
RightToes  -3.11842e-008 1.75238e-005 3.56266e-009
Spine  -0.661316 -5.48282 -13.0423
Spine1  -1.2853 -6.95782 11.6269
HEad  -12.12 -15.6661 13.4605
LeftShoulder1  2.54688 -7.18486 -17.1794
LeftArm  -36.8062 -58.1773 -44.9756
LeftForeArm  46.1088 -78.2607 -74.9714
LeftHand  -0.0322186 -3.29738 0.67121
RightShoulder  1.49407 3.38381 14.9183
RightArm  -64.9329 38.1945 16.7466
RightForeArm  59.12 76.3112 116.926
RightHand  -0.124441 7.60672 -1.47696
LeftUpLeg  0.338647 1.22156 2.64147
LeftLeg  -4.40401 20.6276 -2.01116
LeftFoot  1.83775 0.118158 -1.12006
LeftToes  4.7713e-008 1.46693e-008 1.32589e-009
265
root  -2.46901 41.0094 0.794181 175.031 -83.2125 -171.216
RightUpLeg  -0.104872 -0.367379 -1.43305
RightLeg  -5.22099 -13.5857 1.53192
RightFoot  3.25864 -0.404811 3.33293
RightToes  -3.11842e-008 1.75238e-005 3.56266e-009
Spine  0.31092 -5.49434 -13.2849
Spine1  -2.41898 -7.07784 12.5231
HEad  -13.3416 -15.9278 13.8257
LeftShoulder1  2.60599 -7.14825 -17.8719
LeftArm  -36.9814 -57.4392 -43.4469
LeftForeArm  58.5835 -78.6474 -87.052
LeftHand  -0.0203144 -2.823 0.48866
RightShoulder  1.57307 3.55138 15.58
RightArm  -64.2761 37.4508 17.2942
RightForeArm  67.8174 75.1531 124.869
RightHand  -0.13996 7.98696 -1.59054
LeftUpLeg  0.0231688 1.10526 2.521
LeftLeg  -4.5332 21.2749 -2.08717
LeftFoot  1.99946 0.0859561 -0.838132
LeftToes  4.7713e-008 1.46693e-008 1.32589e-009
266
root  -2.35263 41.0089 0.867985 175.653 -82.4421 -171.656
RightUpLeg  -0.600324 -0.281583 -1.47064
RightLeg  -5.24137 -12.9469 1.48465
RightFoot  3.54776 -0.408972 3.314
RightToes  -3.11842e-008 1.75238e-005 3.56266e-009
Spine  0.284303 -5.28828 -13.4246
Spine1  -1.48703 -7.10588 13.2271
HEad  -14.4516 -15.4713 14.5068
LeftShoulder1  2.71741 -6.96764 -19.4587
LeftArm  -35.1864 -55.5149 -42.4161
LeftForeArm  79.2565 -78.0771 -107.97
LeftHand  -0.0598093 -3.62516 1.03185
RightShoulder  1.72017 3.77594 17.0297
RightArm  -62.5027 35.4561 17.8718
RightForeArm  79.3464 72.0055 137.627
RightHand  -0.135501 7.42117 -1.58144
LeftUpLeg  -0.321133 1.05236 2.45648
LeftLeg  -4.48041 22.0966 -2.11147
LeftFoot  2.03287 0.0751397 -0.746643
LeftToes  4.7713e-008 1.46693e-008 1.32589e-009
267
root  -2.19411 41.0081 0.927081 177.206 -81.5511 -173.117
RightUpLeg  -1.17113 -0.0835741 -1.52197
RightLeg  -5.07659 -12.3134 1.19816
RightFoot  3.76772 -0.421039 3.36729
RightToes  -3.11842e-008 1.75238e-005 3.56266e-009
Spine  0.171326 -4.95984 -13.5855
Spine1  0.193682 -7.06941 13.6753
HEad  -15.9051 -15.5699 14.5758
LeftShoulder1  3.00991 -7.3005 -21.5107
LeftArm  -32.8684 -51.3862 -41.5522
LeftForeArm  101.726 -75.2936 -130.053
LeftHand  0.036142 -3.98509 -0.181974
RightShoulder  2.03409 4.32505 19.5715
RightArm  -59.3602 32.2325 19.1792
RightForeArm  90.381 66.9012 148.871
RightHand  -0.00249745 7.50455 -0.394882
LeftUpLeg  -0.472033 0.950472 2.29239
LeftLeg  -4.77004 23.1407 -2.31438
LeftFoot  2.34189 0.045256 -0.495391
LeftToes  4.7713e-008 1.46693e-008 1.32589e-009
268
root  -1.96942 41.0063 0.970733 177.84 -80.9856 -174.052
RightUpLeg  -1.35449 0.133765 -1.49897
RightLeg  -4.96618 -12.0828 0.912139
RightFoot  4.04235 -0.441553 3.47255
RightToes  -3.11842e-008 1.75238e-005 3.56266e-009
Spine  0.265861 -4.67764 -13.6513
Spine1  2.83233 -7.19498 13.7592
HEad  -17.3435 -15.1827 14.4866
LeftShoulder1  3.22445 -7.56131 -22.8786
LeftArm  -29.8136 -45.329 -41.7288
LeftForeArm  115.993 -70.4032 -145.434
LeftHand  0.107077 -4.44326 -0.978679
RightShoulder  2.49137 5.23825 22.2711
RightArm  -54.5384 26.9007 21.047
RightForeArm  98.398 60.6268 156.703
RightHand  0.094434 8.31974 0.414122
LeftUpLeg  -0.450865 0.884155 2.15823
LeftLeg  -4.80718 23.7835 -2.34162
LeftFoot  2.6166 0.0288795 -0.365332
LeftToes  4.7713e-008 1.46693e-008 1.32589e-009
269
root  -1.72051 41.0005 1.04165 178.142 -80.5132 -174.823
RightUpLeg  -1.49537 0.0295371 -1.63358
RightLeg  -4.62877 -11.5492 0.827406
RightFoot  4.18053 -0.452644 3.52948
RightToes  -3.11842e-008 1.75238e-005 3.56266e-009
Spine  0.811716 -4.34463 -13.5903
Spine1  5.82333 -7.41457 13.9564
HEad  -18.6927 -13.4037 14.0629
LeftShoulder1  3.44427 -7.73376 -24.4495
LeftArm  -25.7231 -37.4079 -43.0405
LeftForeArm  123.571 -65.0751 -154.053
LeftHand  0.2519 -5.27719 -2.41804
RightShoulder  3.00607 6.19737 24.9071
RightArm  -47.8995 21.2758 23.7344
RightForeArm  102.964 54.5336 161.502
RightHand  0.276389 8.55947 1.90783
LeftUpLeg  -0.427831 0.79386 1.98591
LeftLeg  -4.5791 24.3358 -2.22381
LeftFoot  2.76652 0.0184854 -0.284763
LeftToes  4.7713e-008 1.46693e-008 1.32589e-009
270
root  -1.46419 40.9878 1.08279 178.654 -80.2063 -175.619
RightUpLeg  -1.7993 -0.0449993 -1.75355
RightLeg  -4.3342 -11.285 0.791858
RightFoot  4.23665 -0.458209 3.56013
RightToes  -3.11842e-008 1.75238e-005 3.56266e-009
Spine  0.885184 -3.72748 -13.5513
Spine1  9.49673 -7.39355 14.1734
HEad  -21.0942 -12.7075 13.2034
LeftShoulder1  3.8455 -8.44023 -26.0801
LeftArm  -20.6514 -28.6986 -44.9335
LeftForeArm  126.773 -60.9966 -158.287
LeftHand  0.440003 -6.2993 -4.03274
RightShoulder  3.52375 6.91243 27.8514
RightArm  -39.7428 15.9804 25.5972
RightForeArm  105.715 49.9732 164.166
RightHand  0.417731 8.01271 3.2469
LeftUpLeg  -0.598571 0.828502 1.92299
LeftLeg  -4.38971 24.6502 -2.27526
LeftFoot  2.96611 0.0123303 -0.241828
LeftToes  4.7713e-008 1.46693e-008 1.32589e-009
271
root  -1.21822 40.9768 1.10738 -179.421 -79.5818 -177.524
RightUpLeg  -2.60625 -0.155338 -2.01086
RightLeg  -3.75973 -10.7031 0.643678
RightFoot  4.1725 -0.463215 3.60838
RightToes  -3.11842e-008 1.75238e-005 3.56266e-009
Spine  0.429315 -3.17499 -13.502
Spine1  13.0985 -7.24048 14.027
HEad  -23.0732 -10.6018 12.1393
LeftShoulder1  4.08525 -8.75796 -27.2428
LeftArm  -15.9039 -20.1723 -47.2432
LeftForeArm  129.054 -58.9972 -160.004
LeftHand  0.576116 -6.67301 -5.19552
RightShoulder  4.08191 7.84656 30.0477
RightArm  -30.5918 11.2274 27.7353
RightForeArm  109.884 48.5167 165.007
RightHand  0.703022 7.6649 5.84286
LeftUpLeg  -0.811437 0.738217 1.71705
LeftLeg  -4.78203 25.3572 -2.63222
LeftFoot  3.28903 0.0126611 -0.25415
LeftToes  4.7713e-008 1.46693e-008 1.32589e-009
